# Blender v2.77 (sub 0) OBJ File: ''
# www.blender.org
o Cube
v 0.888749 -0.752142 1.236870
v 0.888749 -0.752142 3.236870
v -1.111251 -0.752142 3.236870
v -1.111251 -0.752142 1.236870
v 0.888749 1.247858 1.236871
v 0.888748 1.247858 3.236871
v -1.111252 1.247858 3.236870
v -1.111251 1.247858 1.236870
vn 0.0000 -1.0000 0.0000
vn 0.0000 1.0000 0.0000
vn 1.0000 -0.0000 0.0000
vn 0.0000 -0.0000 1.0000
vn -1.0000 -0.0000 -0.0000
vn 0.0000 0.0000 -1.0000
s off
f 1//1 3//1 4//1
f 8//2 6//2 5//2
f 5//3 2//3 1//3
f 6//4 3//4 2//4
f 3//5 8//5 4//5
f 1//6 8//6 5//6
f 1//1 2//1 3//1
f 8//2 7//2 6//2
f 5//3 6//3 2//3
f 6//4 7//4 3//4
f 3//5 7//5 8//5
f 1//6 4//6 8//6
